# xmcd
#
# Track frame offsets: 
#        150
#        19065
#        38028
#        56949
#        77256
#        97781
#        116059
#        135316
#        153874
#        181542
#
# Disc length: 2706 seconds
#
# Revision: 0
# Processed by: cddbd v1.5.2PL0 Copyright (c) Steve Scherf et al.
# Submitted via: ExactAudioCopy v1.0b3
#
DISCID=670a900a
DTITLE=Tuan Vu - Duong Tinh May Tram
DYEAR=1992
DGENRE=
TTITLE0=Toi voi troi bo vo
TTITLE1=Chuyen ba mua mua
TTITLE2=Tra lai em
TTITLE3=Mot lan xa ben
TTITLE4=Cho vua long em
TTITLE5=Duoc tin em lay chong
TTITLE6=Thuong han
TTITLE7=Hay quen em
TTITLE8=Lan dau lan cuoi
TTITLE9=Xin vay tay chao
EXTD=
EXTT0=
EXTT1=
EXTT2=
EXTT3=
EXTT4=
EXTT5=
EXTT6=
EXTT7=
EXTT8=
EXTT9=
PLAYORDER=
